# xmcd
#
# Track frame offsets:
#	150
#	14854
#	28634
#	41932
#	56225
#	69568
#	82917
#	95807
#	108570
#	123925
#	139433
#
# Disc length: 2039 seconds
#
# Revision: 1
# Processed by: cddbd v1.5.2PL0 Copyright (c) Steve Scherf et al.
# Submitted via: audiograbber 1.83.01
#
DISCID=a607f50b
DTITLE=LOCASH - Brothers
DYEAR=2019
DGENRE=Country
TTITLE0=One Big Country Song
TTITLE1=How Much Time You Got
TTITLE2=Brothers
TTITLE3=Summer In A Truck
TTITLE4=God Thing
TTITLE5=It's Only Midnight
TTITLE6=Feels Like A Party
TTITLE7=Secret Weapon
TTITLE8=Cold Beer Kinda Night
TTITLE9=Kissing A Girl
TTITLE10=Beers To Catch Up On
EXTD=
EXTT0=
EXTT1=
EXTT2=
EXTT3=
EXTT4=
EXTT5=
EXTT6=
EXTT7=
EXTT8=
EXTT9=
EXTT10=
PLAYORDER=
